<svg width="40" height="40" viewBox="0 0 40 40" fill="none" xmlns="http://www.w3.org/2000/svg">
<path d="M7.9375 32H32C33.0625 32 34 32.9375 34 34C34 35.125 33.0625 36 31.9375 36H7.9375C6.875 36 6 35 6 34C6 32.9375 6.875 32 7.9375 32Z" fill="#1B1B1F"/>
<path d="M27.1742 11.2362L27.171 11.2324C26.762 10.7491 26.0107 10.6304 25.4807 11.0842C24.9983 11.4928 24.8814 12.2393 25.2967 12.7679L25.2997 12.7716C26.3024 13.987 26.8183 15.4437 26.8183 16.9931C26.8183 18.5738 26.3024 20.03 25.3005 21.2449C24.877 21.7466 25.0015 22.5277 25.4812 22.9337L25.4824 22.9346C25.7114 23.1255 25.9779 23.2 26.2361 23.2C26.6027 23.2 26.9415 23.0527 27.1701 22.786L27.1742 22.7811C28.485 21.1506 29.2206 19.1043 29.2206 16.9931C29.2206 14.9128 28.4848 12.8664 27.1742 11.2362Z" fill="#1B1B1F"/>
<path d="M16.8592 13.5278L16.8501 13.5206C16.4546 13.2041 15.8653 13.2451 15.5128 13.6368L15.5111 13.6387C13.8811 15.4969 13.8806 18.518 15.5095 20.3769C15.702 20.6067 15.9755 20.7284 16.2246 20.7284C16.4503 20.7284 16.6918 20.6543 16.8628 20.4859C17.2514 20.1325 17.2928 19.5403 16.9374 19.1443C15.9095 17.9685 15.9095 16.0489 16.9374 14.8731C17.2939 14.4758 17.2514 13.8808 16.8592 13.5278Z" fill="#1B1B1F"/>
<path d="M12.8135 22.7482C13.0432 23.0519 13.3859 23.2 13.753 23.2C14.0112 23.2 14.2777 23.1255 14.5067 22.9346L14.5079 22.9337C14.9907 22.5251 15.1079 21.7782 14.6924 21.2495L14.6894 21.2458C13.6887 20.0328 13.2021 18.5769 13.2021 16.9931C13.2021 15.4413 13.6881 13.9857 14.6887 12.7725C15.1121 12.2708 14.9877 11.4896 14.508 11.0836L14.5023 11.0792C13.9735 10.6637 13.2267 10.7808 12.8181 11.2636L12.8162 11.266C11.5029 12.8676 10.7998 14.9152 10.7998 16.9931C10.7998 19.1004 11.5017 21.1468 12.8135 22.7482Z" fill="#1B1B1F"/>
<path d="M24.478 13.6387L24.4763 13.6368C24.1243 13.2457 23.5318 13.2021 23.1345 13.5555C22.7307 13.8828 22.7006 14.4818 23.0517 14.8732C24.0796 16.049 24.0796 17.9685 23.0517 19.1443C22.6963 19.5403 22.7377 20.1325 23.1263 20.4859C23.2973 20.6543 23.5388 20.7284 23.7645 20.7284C24.0136 20.7284 24.2871 20.6067 24.4796 20.3769C26.1085 18.518 26.108 15.4969 24.478 13.6387Z" fill="#1B1B1F"/>
<path d="M18.0582 16.9931C18.0582 15.9463 18.9276 15.041 20.0102 15.041C21.0592 15.041 21.9622 15.944 21.9622 16.9931C21.9622 18.0757 21.0569 18.9451 20.0102 18.9451C18.9299 18.9451 18.0582 18.0734 18.0582 16.9931Z" fill="#1B1B1F"/>
<path fill-rule="evenodd" clip-rule="evenodd" d="M3 4H37C38.625 4 40 5.375 40 7V27C40 28.6875 38.625 30 37 30H3C1.3125 30 0 28.6875 0 27V7C0 5.375 1.3125 4 3 4ZM4 26H36V8H4V26Z" fill="#1B1B1F"/>
</svg>
